<?xml version="1.0" encoding="utf-8"?>
<svg version="1.1" id="Layer_1"
xmlns="http://www.w3.org/2000/svg"
xmlns:xlink="http://www.w3.org/1999/xlink"
width="543px" height="142px"
xml:space="preserve">
<g id="PathID_46" transform="matrix(1.25633, 0, 0, 1.25633, 73.45, 112)" opacity="1">
<path style="fill:#60C1BD;fill-opacity:1" d="M37.2 -34.6Q32.1 -34.6 32.1 -30.35L32.1 -5.15Q32.1 -2.6 33.4 -1.65Q34.5 -0.85 37.2 -0.9L37.2 0L22.65 0L22.65 -0.9Q27.95 -0.9 27.95 -5.15L27.95 -16.65L10.45 -16.65L10.45 -5.15Q10.45 -2.6 11.75 -1.65Q12.85 -0.85 15.55 -0.9L15.55 0L1 0L1 -0.9Q6.3 -0.9 6.3 -5.15L6.3 -30.35Q6.3 -32.9 5 -33.85Q3.9 -34.6 1.15 -34.6L1.15 -35.5L15.55 -35.5L15.55 -34.6Q10.45 -34.6 10.45 -30.35L10.45 -19L27.95 -19L27.95 -30.35Q27.95 -32.9 26.6 -33.85Q25.5 -34.65 22.8 -34.6L22.8 -35.5L37.2 -35.5L37.2 -34.6" />
</g>
<g id="PathID_47" transform="matrix(1.25633, 0, 0, 1.25633, 126.45, 112)" opacity="1">
<path style="fill:#60C1BD;fill-opacity:1" d="M29 -8.4L28 0L-0.15 0L-0.15 -0.9Q5.8 -1 5.8 -4.3L5.8 -31.25Q5.8 -33.2 4.8 -33.9Q3.7 -34.6 0.45 -34.6L0.45 -35.5L26.85 -35.5L27.15 -27.8L26.2 -27.8Q25.6 -33.6 22.5 -33.6L10.35 -33.6L10.35 -19.5L20 -19.5Q22.35 -19.5 23 -23.85L23.85 -23.85L23.85 -13.05L23 -13.05Q22.2 -17.75 20 -17.75L10.35 -17.75L10.35 -4.75Q10.35 -2 12.45 -2L23.05 -2Q26.8 -2 28 -8.5L29 -8.4" />
</g>
<g id="PathID_48" transform="matrix(1.25633, 0, 0, 1.25633, 168.15, 112)" opacity="1">
<path style="fill:#60C1BD;fill-opacity:1" d="M46.25 0L32.9 0L32.9 -0.8Q34.15 -0.8 35.8 -1.95Q37.6 -3.2 37.5 -4.4L35.55 -29.35L22.95 0L21.65 0L8.5 -30.3L6.85 -3.55Q6.85 -2.35 8.8 -1.5Q10.45 -0.8 11.85 -0.8L11.9 0L0.8 0L0.7 -0.8Q4.65 -0.8 4.85 -4.35L6.4 -31.45Q6.4 -33 5 -33.8Q3.85 -34.45 2.15 -34.45L2.2 -35.6L10.65 -35.6L23.25 -6.3L35.85 -35.6L43.75 -35.6L43.75 -34.45L42.85 -34.5L41.95 -34.5Q39.45 -34.5 39.6 -32.55L41.65 -2.65Q41.75 -1.85 43.65 -1.3Q45.15 -0.9 46.25 -0.9L46.25 0" />
</g>
<g id="PathID_49" transform="matrix(1.25633, 0, 0, 1.25633, 231, 112)" opacity="1">
<path style="fill:#60C1BD;fill-opacity:1" d="M15.55 -34.6Q10.45 -34.6 10.45 -30.35L10.45 -5.15Q10.45 -2.6 11.8 -1.65Q12.9 -0.85 15.55 -0.9L15.55 0L1 0L1 -0.9Q6.3 -0.9 6.3 -5.15L6.3 -30.35Q6.3 -32.9 4.95 -33.85Q3.85 -34.65 1.15 -34.6L1.15 -35.5L15.55 -35.5L15.55 -34.6" />
</g>
<g id="PathID_50" transform="matrix(1.25633, 0, 0, 1.25633, 256.85, 112)" opacity="1">
<path style="fill:#60C1BD;fill-opacity:1" d="M33.15 -8.85Q31.5 -4.05 28.35 -0.95Q20.7 0.25 18.55 0.25Q11.25 0.25 6.15 -4.35Q0.95 -9.1 0.95 -16.3Q0.95 -24.3 6.1 -29.9Q11.45 -35.6 19.4 -35.6Q24.65 -35.6 28.8 -33.65Q30.1 -33.05 30.5 -33.05Q31 -33.05 31.25 -33.45L32 -33.4L32.35 -25.85L31.45 -25.85Q30.35 -29.85 26.95 -32.15Q23.7 -34.35 19.4 -34.35Q13.1 -34.35 9.2 -29.2Q5.65 -24.5 5.65 -18Q5.65 -11.2 9.5 -6.3Q13.65 -0.95 20.25 -0.95Q23.9 -0.95 27.35 -3.35Q30.7 -5.7 32.1 -9.15L33.15 -8.85" />
</g>
<g id="PathID_51" transform="matrix(1.25633, 0, 0, 1.25633, 301.8, 112)" opacity="1">
<path style="fill:#60C1BD;fill-opacity:1" d="M29.05 -9.3L25.6 0L0.5 0L0.4 -1.4L20.9 -33.2L5.7 -33.2Q4.3 -33.2 3.4 -30.45L2.35 -26.5L1.25 -26.6L3.25 -36.4L4.1 -36.7Q4.9 -35.45 5.95 -35.45L26.7 -35.45L26.3 -34.45L5.15 -2.35L23.8 -2.35Q24.9 -2.35 26.45 -5.25L28.3 -9.3L29.05 -9.3" />
</g>
<g id="PathID_52" transform="matrix(1.25633, 0, 0, 1.25633, 341.2, 112)" opacity="1">
<path style="fill:#60C1BD;fill-opacity:1" d="M37.65 0L21.5 0L21.65 -0.95Q22.35 -0.75 23.15 -0.75Q23.9 -0.75 24.65 -1.05Q25.6 -1.4 25.6 -2Q25.6 -2.7 23.15 -5.25L19.9 -8.5Q15.05 -13.55 10.45 -15.9L10.45 -5.15Q10.45 -2.6 11.8 -1.65Q12.9 -0.85 15.55 -0.9L15.55 0L1 0L1 -0.9Q6.3 -0.85 6.3 -5.15L6.3 -30.35Q6.3 -32.9 4.95 -33.85Q3.85 -34.65 1.15 -34.6L1.15 -35.5L15.55 -35.5L15.55 -34.6Q10.45 -34.65 10.45 -30.35L10.45 -17.6Q13.95 -19.25 17.25 -23.1L21.3 -27.65Q24.2 -31.15 24.2 -32.45Q24.2 -34.2 20.05 -34.55L20.25 -35.5L33.25 -35.5L33.25 -34.25L30.9 -34.15Q29.7 -34 28.7 -33.3Q27.05 -32.2 24.55 -28.65Q21.35 -24.05 20.7 -23.35L15.7 -18.2Q19.25 -16.1 24.3 -10.4L28.5 -5.4Q31.8 -1.6 32.95 -1.25Q35 -0.65 37.65 -0.95L37.65 0" />
</g>
<g id="PathID_53" transform="matrix(1.25633, 0, 0, 1.25633, 392.75, 112)" opacity="1">
<path style="fill:#60C1BD;fill-opacity:1" d="M36.4 0L21.75 0L21.75 -1.1L25.35 -1.1Q26.95 -1.1 26.95 -2.85Q26.95 -4.05 26.1 -6.35L23.45 -13.35Q23.1 -14.35 22.4 -14.35L12.55 -14.35Q11.75 -14.35 11.4 -13.45L9.2 -8.05Q7.5 -3.65 7.5 -2.9Q7.5 -1.1 9.5 -1.1L9.55 -1.1L12.8 -1.1L12.8 0L0.45 0L0.45 -1.1L2.2 -1.1Q4.3 -1.1 5.75 -4.85L16.8 -34.05Q16.9 -34.25 16.9 -34.5Q16.9 -34.95 16.65 -35.2L16.8 -35.45L19.8 -35.45L31.7 -4Q32.45 -2.05 33.45 -1.55Q34.25 -1.1 36.4 -1.1L36.4 0M21.8 -17.15L21.8 -17.8L17.85 -28.3Q17.75 -28.55 17.45 -28.75Q17.2 -28.75 17.05 -28.3L12.8 -16.95Q12.8 -16.6 13.1 -16.6L21.3 -16.6Q21.8 -16.6 21.8 -17.15" />
</g>
<g id="PathID_54" transform="matrix(1.25633, 0, 0, 1.25633, 443.8, 112)" opacity="1">
<path style="fill:#60C1BD;fill-opacity:1" d="M8.1 -2.4Q8.1 -1.25 7.25 -0.4Q6.4 0.4 5.25 0.4Q4.05 0.4 3.2 -0.4Q2.35 -1.25 2.35 -2.4Q2.35 -3.6 3.2 -4.45Q4.05 -5.3 5.25 -5.3Q6.4 -5.3 7.25 -4.45Q8.1 -3.6 8.1 -2.4" />
</g>
<g id="PathID_55" transform="matrix(1.25633, 0, 0, 1.25633, 461.55, 112)" opacity="1">
<path style="fill:#60C1BD;fill-opacity:1" d="M28 -25.95Q28 -21.1 23.7 -17.8Q19.8 -14.8 14.8 -14.8Q13.1 -14.8 10.25 -15.55L10.25 -5.15Q10.25 -2.9 12 -1.7Q13.55 -0.7 15.9 -0.8L16.1 -0.1L16.05 0.1L0.85 0.1L1 -0.95L1.3 -0.95Q3.85 -0.95 4.85 -1.95Q5.85 -2.95 5.85 -5.5L5.85 -31.25Q5.85 -34.55 1 -34.55L1 -35.45Q4.5 -35.95 11.25 -35.95Q18.75 -35.95 22.35 -34.5Q28 -32.25 28 -25.95M22.75 -25.95Q22.75 -29.55 20.55 -32.1Q18.25 -34.75 14.65 -34.75Q13.8 -34.75 12.45 -34.55L10.25 -34.25L10.25 -16.9Q11.95 -16.4 15.25 -16.4Q19.2 -16.4 21.15 -19.3Q22.75 -21.75 22.75 -25.95" />
</g>
<g id="PathID_56" transform="matrix(1.25633, 0, 0, 1.25633, 500.85, 112)" opacity="1">
<path style="fill:#60C1BD;fill-opacity:1" d="M29.95 -8.65L28 0L-0.15 0L-0.15 -0.9Q5.8 -1 5.8 -4.3L5.8 -31.2Q5.8 -33.5 4.15 -34.2Q3.2 -34.55 0.45 -34.55L0.45 -35.45L16.3 -35.45L16.3 -34.65L15.95 -34.65Q14 -34.7 12.4 -33.9Q10.35 -32.95 10.35 -31.2L10.35 -4.75Q10.35 -2 12.45 -2L23.05 -2Q25.5 -2 27.1 -4.25Q28.45 -6.05 28.95 -8.75L29.95 -8.65" />
</g>
<g id="PathID_57" transform="matrix(1.56145, 0, 5.99474e-008, -0.685719, 136.5, 134.35)" opacity="1">
<path style="fill:#44A6A6;fill-opacity:1" d="M235.35 2.9L0 2.9L0 0L235.35 0L235.35 2.9" />
</g>
<filter id="filter32" x="-0.532831" y="-1.66296" width="2.24864" height="3.37877" >
<feComponentTransfer in="SourceGraphic">
	<feFuncR type="linear" slope="0"/>
	<feFuncG type="linear" slope="0"/>
	<feFuncB type="linear" slope="0"/>
</feComponentTransfer>
<feGaussianBlur stdDeviation="0.8 0.8" />
<feOffset dx="6.55322" dy="4.5886"/>
<feComponentTransfer result="29">
	<feFuncR type="linear" intercept="0.449689"/>
	<feFuncG type="linear" intercept="0.900638"/>
	<feFuncB type="linear" intercept="0.900638"/>
	<feFuncA type="linear" slope="2"/>
</feComponentTransfer>
<feComponentTransfer in="SourceGraphic">
	<feFuncR type="linear" slope="0"/>
	<feFuncG type="linear" slope="0"/>
	<feFuncB type="linear" slope="0"/>
</feComponentTransfer>
<feGaussianBlur stdDeviation="0.8 0.8" />
<feOffset dx="-6.55322" dy="-4.5886"/>
<feComponentTransfer result="30">
	<feFuncR type="linear" intercept="0.010396"/>
	<feFuncG type="linear" intercept="0.0629912"/>
	<feFuncB type="linear" intercept="0.0629912"/>
	<feFuncA type="linear" slope="2"/>
</feComponentTransfer>
<feComposite result="shadow" in="30" in2="29" operator="xor"></feComposite>
<feComposite in="SourceGraphic" in2="shadow" operator="over" result="31"></feComposite>
</filter>
<g style="filter:url(#filter32);">
<g id="PathID_58" transform="matrix(1.63717, 0, 0, 1.4585, 134.45, 125.1)" opacity="1">
<path style="fill:#44A6A6;fill-opacity:1" d="M235.35 2.9L0 2.9L0 0L235.35 0L235.35 2.9" />
</g>
</g>
<filter id="filter37" x="-0.549524" y="-0.549524" width="2.29906" height="2.30047" >
<feComponentTransfer in="SourceGraphic">
	<feFuncR type="linear" slope="0"/>
	<feFuncG type="linear" slope="0"/>
	<feFuncB type="linear" slope="0"/>
</feComponentTransfer>
<feGaussianBlur stdDeviation="2 2" />
<feOffset dx="-3.53558" dy="-3.53549"/>
<feComponentTransfer result="33">
	<feFuncR type="linear" intercept="0.449689"/>
	<feFuncG type="linear" intercept="0.900638"/>
	<feFuncB type="linear" intercept="0.900638"/>
	<feFuncA type="linear" slope="1"/>
</feComponentTransfer>
<feComponentTransfer in="SourceGraphic">
	<feFuncR type="linear" slope="0"/>
	<feFuncG type="linear" slope="0"/>
	<feFuncB type="linear" slope="0"/>
</feComponentTransfer>
<feGaussianBlur stdDeviation="2 2" />
<feOffset dx="3.53558" dy="3.53549"/>
<feComponentTransfer result="34">
	<feFuncR type="linear" intercept="0.010396"/>
	<feFuncG type="linear" intercept="0.0629912"/>
	<feFuncB type="linear" intercept="0.0629912"/>
	<feFuncA type="linear" slope="1"/>
</feComponentTransfer>
<feComposite result="shadow" in="34" in2="33" operator="xor"></feComposite>
<feComposite in="SourceGraphic" in2="shadow" operator="over" result="35"></feComposite>
<feComponentTransfer in="35">
	<feFuncR type="linear" slope="0"/>
	<feFuncG type="linear" slope="0"/>
	<feFuncB type="linear" slope="0"/>
</feComponentTransfer>
<feGaussianBlur stdDeviation="1 1" />
<feOffset dx="2.12135" dy="2.12129"/>
<feComponentTransfer result="shadow">
	<feFuncR type="linear" intercept="0.0610381"/>
	<feFuncG type="linear" intercept="0.124567"/>
	<feFuncB type="linear" intercept="0.124567"/>
	<feFuncA type="linear" slope="0.5"/>
</feComponentTransfer>
<feComposite in="35" in2="shadow" operator="over" result="36"/>
</filter>
<g style="filter:url(#filter37);">
<g id="PathID_59" transform="matrix(0.990322, -0.0975677, 0.0586941, 0.595751, 63.3, 93.85)" opacity="1">
<path style="fill:#44A6A6;fill-opacity:1" d="M9.05 -52.8Q-12.8 -26.7 -9.85 7.2Q-6.85 41.15 19.2 63Q33.9 75.35 51.05 79.75Q44.65 81.3 37.8 81.9Q3.9 84.9 -22.25 63Q-48.3 41.15 -51.3 7.2Q-54.2 -26.7 -32.35 -52.8Q-10.45 -78.85 23.45 -81.85Q38.3 -83.15 51.6 -79.65Q26.5 -73.55 9.05 -52.8" />
</g>
</g>
<filter id="filter42" x="-0.549524" y="-0.549524" width="2.5821" height="2.32838" >
<feComponentTransfer in="SourceGraphic">
	<feFuncR type="linear" slope="0"/>
	<feFuncG type="linear" slope="0"/>
	<feFuncB type="linear" slope="0"/>
</feComponentTransfer>
<feGaussianBlur stdDeviation="2 2" />
<feOffset dx="-3.53558" dy="-3.53549"/>
<feComponentTransfer result="38">
	<feFuncR type="linear" intercept="0.449689"/>
	<feFuncG type="linear" intercept="0.900638"/>
	<feFuncB type="linear" intercept="0.900638"/>
	<feFuncA type="linear" slope="1"/>
</feComponentTransfer>
<feComponentTransfer in="SourceGraphic">
	<feFuncR type="linear" slope="0"/>
	<feFuncG type="linear" slope="0"/>
	<feFuncB type="linear" slope="0"/>
</feComponentTransfer>
<feGaussianBlur stdDeviation="2 2" />
<feOffset dx="3.53558" dy="3.53549"/>
<feComponentTransfer result="39">
	<feFuncR type="linear" intercept="0.010396"/>
	<feFuncG type="linear" intercept="0.0629912"/>
	<feFuncB type="linear" intercept="0.0629912"/>
	<feFuncA type="linear" slope="1"/>
</feComponentTransfer>
<feComposite result="shadow" in="39" in2="38" operator="xor"></feComposite>
<feComposite in="SourceGraphic" in2="shadow" operator="over" result="40"></feComposite>
<feComponentTransfer in="40">
	<feFuncR type="linear" slope="0"/>
	<feFuncG type="linear" slope="0"/>
	<feFuncB type="linear" slope="0"/>
</feComponentTransfer>
<feGaussianBlur stdDeviation="1 1" />
<feOffset dx="2.12135" dy="2.12129"/>
<feComponentTransfer result="shadow">
	<feFuncR type="linear" intercept="0.0610381"/>
	<feFuncG type="linear" intercept="0.124567"/>
	<feFuncB type="linear" intercept="0.124567"/>
	<feFuncA type="linear" slope="0.5"/>
</feComponentTransfer>
<feComposite in="40" in2="shadow" operator="over" result="41"/>
</filter>
<g style="filter:url(#filter42);">
<g id="PathID_60" transform="matrix(1.26661, -0.346679, 0, 0.395502, 105.75, 22.85)" opacity="1">
<path style="fill:#44A6A6;fill-opacity:1" d="M3 -51.5L3 51.5Q3 52.7 2.1 53.6Q1.2 54.5 0 54.5Q-1.2 54.5 -2.1 53.6Q-3 52.7 -3 51.5L-3 -51.5Q-3 -52.7 -2.1 -53.6Q-1.2 -54.5 0 -54.5Q1.2 -54.5 2.1 -53.6Q3 -52.7 3 -51.5" />
</g>
</g>
</svg>
